<mxfile host="app.diagrams.net" modified="2023-08-18T06:21:52.314Z" agent="Mozilla/5.0 (Windows NT 10.0; Win64; x64) AppleWebKit/537.36 (KHTML, like Gecko) Chrome/115.0.0.0 Safari/537.36" etag="5O0WkJ6Zk49eCVwAUUwg" version="21.6.6" type="github">
  <diagram id="C5RBs43oDa-KdzZeNtuy" name="Page-1">
    <mxGraphModel dx="2124" dy="1033" grid="1" gridSize="10" guides="1" tooltips="1" connect="1" arrows="1" fold="1" page="0" pageScale="1" pageWidth="827" pageHeight="1169" math="0" shadow="0">
      <root>
        <mxCell id="WIyWlLk6GJQsqaUBKTNV-0" />
        <mxCell id="WIyWlLk6GJQsqaUBKTNV-1" parent="WIyWlLk6GJQsqaUBKTNV-0" />
        <mxCell id="WIyWlLk6GJQsqaUBKTNV-2" value="" style="rounded=0;html=1;jettySize=auto;orthogonalLoop=1;fontSize=11;endArrow=block;endFill=0;endSize=8;strokeWidth=1;shadow=0;labelBackgroundColor=none;edgeStyle=orthogonalEdgeStyle;entryX=0.5;entryY=0;entryDx=0;entryDy=0;" parent="WIyWlLk6GJQsqaUBKTNV-1" source="WIyWlLk6GJQsqaUBKTNV-3" target="WIyWlLk6GJQsqaUBKTNV-11" edge="1">
          <mxGeometry relative="1" as="geometry">
            <mxPoint x="399" y="150" as="targetPoint" />
          </mxGeometry>
        </mxCell>
        <mxCell id="WIyWlLk6GJQsqaUBKTNV-3" value="&lt;b&gt;导入shsany-speech-recognition.js&lt;/b&gt;" style="rounded=1;whiteSpace=wrap;html=1;fontSize=12;glass=0;strokeWidth=1;shadow=0;fillColor=#dae8fc;strokeColor=#6c8ebf;" parent="WIyWlLk6GJQsqaUBKTNV-1" vertex="1">
          <mxGeometry x="285" y="20" width="230" height="80" as="geometry" />
        </mxCell>
        <mxCell id="PjRsgQFvFl-q-0NaU9in-6" style="edgeStyle=orthogonalEdgeStyle;rounded=0;orthogonalLoop=1;jettySize=auto;html=1;entryX=0.5;entryY=0;entryDx=0;entryDy=0;" edge="1" parent="WIyWlLk6GJQsqaUBKTNV-1" source="WIyWlLk6GJQsqaUBKTNV-11" target="PjRsgQFvFl-q-0NaU9in-0">
          <mxGeometry relative="1" as="geometry" />
        </mxCell>
        <mxCell id="PjRsgQFvFl-q-0NaU9in-7" style="edgeStyle=orthogonalEdgeStyle;rounded=0;orthogonalLoop=1;jettySize=auto;html=1;entryX=0.5;entryY=0;entryDx=0;entryDy=0;" edge="1" parent="WIyWlLk6GJQsqaUBKTNV-1" source="WIyWlLk6GJQsqaUBKTNV-11" target="PjRsgQFvFl-q-0NaU9in-1">
          <mxGeometry relative="1" as="geometry" />
        </mxCell>
        <mxCell id="PjRsgQFvFl-q-0NaU9in-8" style="edgeStyle=orthogonalEdgeStyle;rounded=0;orthogonalLoop=1;jettySize=auto;html=1;entryX=0.5;entryY=0;entryDx=0;entryDy=0;" edge="1" parent="WIyWlLk6GJQsqaUBKTNV-1" source="WIyWlLk6GJQsqaUBKTNV-11" target="PjRsgQFvFl-q-0NaU9in-3">
          <mxGeometry relative="1" as="geometry" />
        </mxCell>
        <mxCell id="PjRsgQFvFl-q-0NaU9in-9" style="edgeStyle=orthogonalEdgeStyle;rounded=0;orthogonalLoop=1;jettySize=auto;html=1;" edge="1" parent="WIyWlLk6GJQsqaUBKTNV-1" source="WIyWlLk6GJQsqaUBKTNV-11" target="PjRsgQFvFl-q-0NaU9in-4">
          <mxGeometry relative="1" as="geometry" />
        </mxCell>
        <mxCell id="PjRsgQFvFl-q-0NaU9in-10" style="edgeStyle=orthogonalEdgeStyle;rounded=0;orthogonalLoop=1;jettySize=auto;html=1;entryX=0.5;entryY=0;entryDx=0;entryDy=0;" edge="1" parent="WIyWlLk6GJQsqaUBKTNV-1" source="WIyWlLk6GJQsqaUBKTNV-11" target="PjRsgQFvFl-q-0NaU9in-5">
          <mxGeometry relative="1" as="geometry" />
        </mxCell>
        <mxCell id="WIyWlLk6GJQsqaUBKTNV-11" value="&lt;b&gt;new 出一语音识别对象&lt;/b&gt;" style="rounded=1;whiteSpace=wrap;html=1;fontSize=12;glass=0;strokeWidth=1;shadow=0;fillColor=#f8cecc;strokeColor=#b85450;" parent="WIyWlLk6GJQsqaUBKTNV-1" vertex="1">
          <mxGeometry x="285" y="160" width="230" height="90" as="geometry" />
        </mxCell>
        <mxCell id="PjRsgQFvFl-q-0NaU9in-0" value="&lt;div&gt;&lt;b&gt;开始、停止、暂停语音录制&lt;/b&gt;&lt;/div&gt;&lt;div&gt;&lt;br&gt;&lt;/div&gt;&lt;div&gt;start():Promise&lt;/div&gt;&lt;div&gt;stop():void&lt;/div&gt;&lt;div&gt;pause():void&lt;/div&gt;&lt;div&gt;&lt;br&gt;&lt;/div&gt;" style="rounded=0;whiteSpace=wrap;html=1;fillColor=#e1d5e7;strokeColor=#9673a6;" vertex="1" parent="WIyWlLk6GJQsqaUBKTNV-1">
          <mxGeometry x="-162" y="380" width="200" height="200" as="geometry" />
        </mxCell>
        <mxCell id="PjRsgQFvFl-q-0NaU9in-1" value="&lt;div&gt;&lt;b&gt;获取录音流&lt;/b&gt;&lt;/div&gt;&lt;div&gt;&lt;br&gt;&lt;/div&gt;&lt;div&gt;getPCMRecord():ArrayBuffer&lt;/div&gt;&lt;div&gt;getWAVRecord():Blob&lt;/div&gt;&lt;div&gt;getRAWRecord():Float32Array&lt;/div&gt;" style="rounded=0;whiteSpace=wrap;html=1;fillColor=#e1d5e7;strokeColor=#9673a6;" vertex="1" parent="WIyWlLk6GJQsqaUBKTNV-1">
          <mxGeometry x="78" y="380" width="200" height="200" as="geometry" />
        </mxCell>
        <mxCell id="PjRsgQFvFl-q-0NaU9in-3" value="&lt;div&gt;&lt;b&gt;获取录音流对应的blob路径&lt;/b&gt;&lt;/div&gt;&lt;div&gt;&lt;br&gt;&lt;/div&gt;&lt;div&gt;getPCMBlobUrl():string&lt;/div&gt;&lt;div&gt;getWAVBlobUrl():string&lt;/div&gt;&lt;div&gt;getRAWBlobUrl():string&lt;/div&gt;" style="rounded=0;whiteSpace=wrap;html=1;fillColor=#e1d5e7;strokeColor=#9673a6;" vertex="1" parent="WIyWlLk6GJQsqaUBKTNV-1">
          <mxGeometry x="320" y="380" width="160" height="200" as="geometry" />
        </mxCell>
        <mxCell id="PjRsgQFvFl-q-0NaU9in-4" value="&lt;div&gt;&lt;b&gt;下载录音文件&lt;/b&gt;&lt;/div&gt;&lt;div&gt;&lt;br&gt;&lt;/div&gt;&lt;div&gt;download(encodeType):void&lt;/div&gt;&lt;div&gt;downloadPCM():void&lt;/div&gt;&lt;div&gt;downloadWAV():void&lt;/div&gt;&lt;div&gt;downloadRAW():void&lt;/div&gt;&lt;div&gt;&lt;br&gt;&lt;/div&gt;" style="rounded=0;whiteSpace=wrap;html=1;fillColor=#e1d5e7;strokeColor=#9673a6;" vertex="1" parent="WIyWlLk6GJQsqaUBKTNV-1">
          <mxGeometry x="521" y="380" width="160" height="200" as="geometry" />
        </mxCell>
        <mxCell id="PjRsgQFvFl-q-0NaU9in-5" value="&lt;div&gt;&lt;b&gt;语音识别为文本&lt;/b&gt;&lt;/div&gt;&lt;div&gt;&lt;br&gt;&lt;/div&gt;&lt;div&gt;getText(AlToken, formData):Promise&lt;br&gt;&lt;/div&gt;" style="rounded=0;whiteSpace=wrap;html=1;fillColor=#e1d5e7;strokeColor=#9673a6;" vertex="1" parent="WIyWlLk6GJQsqaUBKTNV-1">
          <mxGeometry x="721" y="380" width="220" height="200" as="geometry" />
        </mxCell>
      </root>
    </mxGraphModel>
  </diagram>
</mxfile>
